{"title":"Felicity (1979) - Glory Annen","uid":5162318,"size":775678892,"categoryP":"porn","categoryS":"movies","magnet":"?xt=urn:btih:309502e5441377a92cf653d0a1f42dc08a0b81a1&amp;dn=Felicity+%281979%29+-+Glory+Annen&amp;tr=udp%3A%2F%2Ftracker.openbittorrent.com%3A80&amp;tr=udp%3A%2F%2Fopen.demonii.com%3A1337&amp;tr=udp%3A%2F%2Ftracker.coppersurfer.tk%3A6969&amp;tr=udp%3A%2F%2Fexodus.desync.com%3A6969","seeders":1,"leechers":0,"uploader":"hellmarvel","files":1,"time":1258217729,"description":"General\nComplete name                    : Felicity (1979)\nFormat                           : AVI\nFormat/Info                      : Audio Video Interleave\nFile size                        : 740 MiB\nDuration                         : 1h 34mn\nOverall bit rate                 : 1 100 Kbps\nWriting application              : MEncoder SVN-r29318(20090522-gcc4.3.3)\nWriting library                  : MPlayer\n\nVideo\nFormat                           : MPEG-4 Visual\nFormat profile                   : Streaming Video@L1\nFormat settings, BVOP            : Yes\nFormat settings, QPel            : No\nFormat settings, GMC             : No warppoints\nFormat settings, Matrix          : Default (H.263)\nCodec ID                         : XVID\nCodec ID/Hint                    : XviD\nDuration                         : 1h 34mn\nBit rate                         : 1 023 Kbps\nWidth                            : 718 pixels\nHeight                           : 464 pixels\nDisplay aspect ratio             : 16/9\nFrame rate                       : 23.976 fps\nResolution                       : 24 bits\nColorimetry                      : 4:2:0\nScan type                        : Progressive\nBits/(Pixel*Frame)               : 0.128\nStream size                      : 688 MiB (93%)\nWriting library                  : XviD 1.2.1 (UTC 2008-12-04)\n\nAudio\nFormat                           : MPEG Audio\nFormat version                   : Version 1\nFormat profile                   : Layer 3\nCodec ID                         : 55\nCodec ID/Hint                    : MP3\nDuration                         : 1h 34mn\nBit rate mode                    : Constant\nBit rate                         : 64.0 Kbps\nChannel(s)                       : 2 channels\nSampling rate                    : 44.1 KHz\nResolution                       : 16 bits\nVideo delay                      : 42ms\nStream size                      : 43.0 MiB (6%)\nAlignment                        : Aligned on interleaves\nInterleave, duration             : 26 ms (0.63 video frame)\nInterleave, preload duration     : 522 ms\nWriting library                  : LAMEUUULAME3.98\n\n","torrent":{"xt":"urn:btih:309502e5441377a92cf653d0a1f42dc08a0b81a1","amp;dn":"Felicity+%281979%29+-+Glory+Annen","amp;tr":["udp%3A%2F%2Ftracker.openbittorrent.com%3A80","udp%3A%2F%2Fopen.demonii.com%3A1337","udp%3A%2F%2Ftracker.coppersurfer.tk%3A6969","udp%3A%2F%2Fexodus.desync.com%3A6969"],"infoHash":"309502e5441377a92cf653d0a1f42dc08a0b81a1","infoHashBuffer":{"type":"Buffer","data":[48,149,2,229,68,19,119,169,44,246,83,208,161,244,45,192,138,11,129,161]},"announce":[],"urlList":[]}}